<?xml version="1.0" encoding="UTF-8"?>
<svg width="294px" height="364px" viewBox="0 0 294 364" version="1.1" xmlns="http://www.w3.org/2000/svg" xmlns:xlink="http://www.w3.org/1999/xlink">
    <title>Illustration</title>
    <defs>
        <rect id="path-1" x="0" y="0" width="126" height="70" rx="8"></rect>
    </defs>
    <g id="Design" stroke="none" stroke-width="1" fill="none" fill-rule="evenodd">
        <g id="Illustration" transform="translate(1.000000, 1.000000)">
            <rect id="Rectangle" stroke="#DFDFDF" fill="#FFFFFF" x="0" y="0" width="292" height="362" rx="8"></rect>
            <rect id="Rectangle" fill="#F5F5F5" x="16" y="40" width="260" height="70" rx="8"></rect>
            <rect id="Rectangle-Copy-19" fill="#F5F5F5" x="16" y="196" width="260" height="156" rx="8"></rect>
            <g id="Group" transform="translate(188.000000, 50.000000)" fill-rule="nonzero">
                <path d="M47.6080132,25.0000375 C48.9918161,25.0000375 50.1266166,23.8777729 49.9886083,22.5041414 C49.4696577,17.342857 47.3507891,12.447256 43.8954907,8.51640021 C39.8873759,3.95634578 34.3545135,1.00560628 28.327366,0.213939033 C22.3004141,-0.577728213 16.1905398,0.843670881 11.1360281,4.2133182 C6.08153591,7.58296356 2.42717271,12.6710253 0.853818806,18.5295747 C-0.719540972,24.388124 -0.104601804,30.6176105 2.58407156,36.057254 C5.27272869,41.4968975 9.8517674,45.7759951 15.4680221,48.0970868 C21.0843746,50.4179831 27.3546518,50.6228657 33.1110681,48.6732581 C38.0733002,46.9925956 42.3615426,43.8099813 45.3975305,39.5992429 C46.2056135,38.4783455 45.7851285,36.9404563 44.586707,36.2500273 L44.586707,36.2500273 C43.3882856,35.5595982 41.8676489,35.9812775 41.0317686,37.0814718 C38.6239633,40.2508049 35.3103927,42.6482636 31.5001877,43.9386921 C26.8952112,45.498261 21.8787546,45.334394 17.38579,43.4775597 C12.8927863,41.6207255 9.22955529,38.1974864 7.07862176,33.8457326 C4.92768824,29.4939787 4.43573252,24.5103895 5.69442739,19.8236751 C6.95312226,15.1368239 9.87658933,11.0663784 13.9201948,8.37065816 C17.9638003,5.67493796 22.8516645,4.53782962 27.6733434,5.17114935 C32.4948266,5.80448862 36.9212731,8.16509194 40.1277649,11.8131355 C42.7808531,14.831414 44.4490902,18.5606879 44.9459202,22.5064851 C45.1185775,23.8764057 46.2242103,25.0000375 47.6080132,25.0000375 L47.6080132,25.0000375 Z" id="Path" fill="#FFFFFF"></path>
                <path d="M47.608012,24.6190748 C48.9918156,24.6190748 50.1266167,23.5141017 49.9886083,22.161207 C49.662282,18.967306 48.702683,15.85861 47.1550312,13.0137228 C45.2125382,9.44315005 42.4038222,6.39836752 38.9776897,4.1490694 C35.5515573,1.89976937 31.6137171,0.515389138 27.5128116,0.118553795 C23.4121018,-0.278281547 19.2749618,0.324677908 15.4680044,1.87402128 C11.6610471,3.42336466 8.30174594,5.87126941 5.68765115,9.0009108 C3.07355635,12.1305329 1.28535483,15.8453003 0.481462641,19.8160484 C-0.322431509,23.7870272 -0.117213381,27.8912952 1.07893926,31.7655287 C2.03197451,34.8525291 3.59064747,37.7173809 5.65862044,40.2023681 C6.5345726,41.2550256 8.13224028,41.2479092 9.11076892,40.2866115 L9.11076892,40.2866115 C10.0892976,39.3251215 10.0748507,37.7745048 9.22595212,36.7006903 C7.72641723,34.803868 6.58820992,32.6479685 5.87452042,30.3362764 C4.91760332,27.2367741 4.75342224,23.9533982 5.39654147,20.776769 C6.03966071,17.6000437 7.47021096,14.6282336 9.56147897,12.124532 C11.6527666,9.62083048 14.3402114,7.66249899 17.3857733,6.42302505 C20.4313157,5.18355112 23.740973,4.70119048 27.0216582,5.01866106 C30.3023435,5.33613165 33.4526548,6.44362429 36.1934433,8.24306663 C38.9344275,10.042509 41.1815178,12.478335 42.7354339,15.3348009 C43.8943131,17.4651774 44.6411246,19.7804661 44.9459177,22.163515 C45.1183792,23.512563 46.2242084,24.6190748 47.608012,24.6190748 L47.608012,24.6190748 Z" id="Path" fill="#E8E8E8"></path>
                <path d="M47.6433842,25 C49.0067244,25 50.1247443,23.8779302 49.9887767,22.5041027 C49.5862741,18.4414092 48.2055764,14.5267625 45.9516004,11.1107484 C43.238999,6.99951973 39.3834985,3.79520475 34.8726535,1.903022 C30.3620014,0.0108319628 25.3983169,-0.484250375 20.6095581,0.480378101 C16.6307417,1.28188751 12.9211026,3.06125977 9.79978839,5.64577033 C8.74429425,6.51973479 8.75137228,8.11379658 9.71543063,9.09010474 L9.71543063,9.09010474 C10.679489,10.0664129 12.2343216,10.0519598 13.3110499,9.20500703 C15.7256026,7.30569147 18.5522432,5.9927819 21.5729028,5.38430561 C25.403717,4.61260673 29.3747418,5.00866124 32.9833792,6.52241057 C36.5920166,8.03615989 39.6764556,10.5996158 41.8463438,13.8885987 C43.5574138,16.4818983 44.6395615,19.434397 45.0206564,22.5064464 C45.1905677,23.8763677 46.2800441,25 47.6433842,25 L47.6433842,25 Z" id="Path" fill="#CECECE"></path>
            </g>
            <text id="+100%" font-family="SFPro-Regular, SF Pro" font-size="34" font-weight="normal" letter-spacing="-0.708333333" fill="#939393">
                <tspan x="28.1438802" y="87">+100%</tspan>
            </text>
            <g id="Group-18" transform="translate(16.000000, 118.000000)">
                <mask id="mask-2" fill="white">
                    <use xlink:href="#path-1"></use>
                </mask>
                <use id="Rectangle-Copy-8" fill="#F5F5F5" xlink:href="#path-1"></use>
                <polyline id="Path-2" stroke="#D8D8D8" stroke-linecap="round" stroke-linejoin="round" mask="url(#mask-2)" points="9.31048463 70 49.6023965 35 75.4031192 49.6636416 87.1727213 28.7198453 126 13"></polyline>
            </g>
            <rect id="Rectangle-Copy-9" fill="#F5F5F5" x="150" y="118" width="126" height="70" rx="8"></rect>
            <path d="M168,140 L170,140 C171.104569,140 172,140.895431 172,142 L172,188 L172,188 L166,188 L166,142 C166,140.895431 166.895431,140 168,140 Z" id="Rectangle" fill="#D8D8D8"></path>
            <path d="M178,138 L180,138 C181.104569,138 182,138.895431 182,140 L182,188 L182,188 L176,188 L176,140 C176,138.895431 176.895431,138 178,138 Z" id="Rectangle-Copy-10" fill="#D8D8D8"></path>
            <path d="M188,153 L190,153 C191.104569,153 192,153.895431 192,155 L192,188 L192,188 L186,188 L186,155 C186,153.895431 186.895431,153 188,153 Z" id="Rectangle-Copy-11" fill="#D8D8D8"></path>
            <path d="M198,132 L200,132 C201.104569,132 202,132.895431 202,134 L202,188 L202,188 L196,188 L196,134 C196,132.895431 196.895431,132 198,132 Z" id="Rectangle-Copy-12" fill="#D8D8D8"></path>
            <path d="M208,165 L210,165 C211.104569,165 212,165.895431 212,167 L212,188 L212,188 L206,188 L206,167 C206,165.895431 206.895431,165 208,165 Z" id="Rectangle-Copy-13" fill="#D8D8D8"></path>
            <path d="M218,126 L220,126 C221.104569,126 222,126.895431 222,128 L222,188 L222,188 L216,188 L216,128 C216,126.895431 216.895431,126 218,126 Z" id="Rectangle-Copy-14" fill="#D8D8D8"></path>
            <path d="M228,156 L230,156 C231.104569,156 232,156.895431 232,158 L232,188 L232,188 L226,188 L226,158 C226,156.895431 226.895431,156 228,156 Z" id="Rectangle-Copy-15" fill="#D8D8D8"></path>
            <path d="M238,144 L240,144 C241.104569,144 242,144.895431 242,146 L242,188 L242,188 L236,188 L236,146 C236,144.895431 236.895431,144 238,144 Z" id="Rectangle-Copy-16" fill="#D8D8D8"></path>
            <path d="M248,138 L250,138 C251.104569,138 252,138.895431 252,140 L252,188 L252,188 L246,188 L246,140 C246,138.895431 246.895431,138 248,138 Z" id="Rectangle-Copy-17" fill="#D8D8D8"></path>
            <path d="M258,153 L260,153 C261.104569,153 262,153.895431 262,155 L262,188 L262,188 L256,188 L256,155 C256,153.895431 256.895431,153 258,153 Z" id="Rectangle-Copy-18" fill="#D8D8D8"></path>
        </g>
    </g>
</svg>