<?xml version="1.0" encoding="UTF-8"?>
<svg width="300px" height="72px" viewBox="0 0 300 72" version="1.1" xmlns="http://www.w3.org/2000/svg" xmlns:xlink="http://www.w3.org/1999/xlink">
    <title>logo</title>
    <g id="logo" stroke="none" stroke-width="1" fill="none" fill-rule="evenodd">
        <g id="FREY▲" fill="#000000" fill-rule="nonzero">
            <path d="M8.78307291,71.9516129 C14.3202276,71.9516129 17.5184117,68.6129032 17.5184117,62.7096774 L17.5184117,44.8548387 L37.7576667,44.8548387 C42.2924054,44.8548387 45.0609827,42.3387097 45.0609827,38.0806452 C45.0609827,33.7741935 42.1969372,31.2580645 37.7576667,31.2580645 L17.5184117,31.2580645 L17.5184117,15.3870968 L40.001169,15.3870968 C44.6313759,15.3870968 47.781826,12.7741935 47.781826,8.22580645 C47.781826,3.67741935 44.7268441,1.06451613 40.001169,1.06451613 L8.78307291,1.06451613 C3.24591825,1.06451613 0,4.4516129 0,10.3548387 L0,62.7096774 C0,68.6129032 3.24591825,71.9516129 8.78307291,71.9516129 Z" id="Path"></path>
            <path d="M61.3957838,72 C66.9329385,72 70.1311226,68.6129032 70.1311226,62.7580645 L70.1311226,46.4516129 L80.1552819,46.4516129 L90.3703776,65.0806452 C93.3298913,70.5 95.1437868,72 99.392121,72 C104.499669,72 108.12746,68.6129032 108.12746,63.9193548 C108.12746,61.8387097 107.793321,60.3870968 106.26583,57.8225806 L97.8168959,43.2580645 C104.833807,39.6774194 108.557067,32.3225806 108.557067,24.0967742 C108.557067,9.67741935 99.2966528,1.06451613 82.1123797,1.06451613 L61.3957838,1.06451613 C55.8586292,1.06451613 52.6127109,4.4516129 52.6127109,10.3548387 L52.6127109,62.7580645 C52.6127109,68.6129032 55.8586292,72 61.3957838,72 Z M70.1311226,34.3064516 L70.1311226,14.4677419 L80.3462183,14.4677419 C86.5993843,14.4677419 90.6567821,18.483871 90.6567821,24.4354839 C90.6567821,30.483871 86.8380548,34.3064516 80.3939524,34.3064516 L70.1311226,34.3064516 Z" id="Shape"></path>
            <path d="M124.080388,70.8870968 L155.632623,70.8870968 C160.358298,70.8870968 163.41328,68.2741935 163.41328,63.7258065 C163.41328,59.1774194 160.26283,56.5645161 155.632623,56.5645161 L132.815727,56.5645161 L132.815727,42.3387097 L154.582473,42.3387097 C158.926275,42.3387097 161.647118,39.9193548 161.647118,35.8064516 C161.647118,31.6935484 158.830807,29.2741935 154.582473,29.2741935 L132.815727,29.2741935 L132.815727,15.3870968 L155.632623,15.3870968 C160.26283,15.3870968 163.41328,12.7741935 163.41328,8.22580645 C163.41328,3.67741935 160.358298,1.06451613 155.632623,1.06451613 L124.080388,1.06451613 C118.543233,1.06451613 115.297315,4.4516129 115.297315,10.3548387 L115.297315,61.5967742 C115.297315,67.5 118.543233,70.8870968 124.080388,70.8870968 Z" id="Path"></path>
            <path d="M199.080388,71.9516129 C204.617543,71.9516129 207.815727,68.6129032 207.815727,62.7096774 L207.815727,46.8870968 L228.102716,14.4193548 C229.391536,12.3870968 229.964346,10.4032258 229.964346,8.27419355 C229.964346,3.53225806 226.28882,0 221.324475,0 C217.839886,0 215.54865,1.59677419 213.305147,5.66129032 L199.414527,30.0967742 L199.080388,30.0967742 L185.189767,5.66129032 C182.850797,1.40322581 180.798231,0 176.979504,0 C171.871956,0 168.148697,3.53225806 168.148697,8.41935484 C168.148697,10.4516129 168.721506,12.483871 169.962592,14.4677419 L190.297315,46.8870968 L190.297315,62.7096774 C190.297315,68.6129032 193.495499,71.9516129 199.080388,71.9516129 Z" id="Path"></path>
            <path d="M300,60.6290323 C300,58.6935484 299.283989,57.0483871 298.090636,54.5322581 L277.13537,10.016129 C275.321474,6.14516129 272.696099,3.96774194 269.306979,3.96774194 C265.870124,3.96774194 263.244749,6.14516129 261.430854,10.016129 L240.475587,54.5322581 C239.282235,57.0483871 238.566224,58.6935484 238.566224,60.6290323 C238.566224,64.5483871 241.573472,68.1290323 246.681019,68.1290323 L291.885204,68.1290323 C297.040486,68.1290323 300,64.5483871 300,60.6290323 Z" id="Path"></path>
        </g>
    </g>
</svg>