<?xml version="1.0" encoding="UTF-8"?>
<svg width="75px" height="18px" viewBox="0 0 75 18" version="1.1" xmlns="http://www.w3.org/2000/svg" xmlns:xlink="http://www.w3.org/1999/xlink">
    <title>logo-footer</title>
    <g id="Exports" stroke="none" stroke-width="1" fill="none" fill-rule="evenodd">
        <g id="logo-footer" fill="#AEAEB2" fill-rule="nonzero">
            <path d="M2.19576823,17.9879032 C3.58005689,17.9879032 4.37960293,17.1532258 4.37960293,15.6774194 L4.37960293,11.2137097 L9.43941667,11.2137097 C10.5731014,11.2137097 11.2652457,10.5846774 11.2652457,9.52016129 C11.2652457,8.44354839 10.5492343,7.81451613 9.43941667,7.81451613 L4.37960293,7.81451613 L4.37960293,3.84677419 L10.0002922,3.84677419 C11.157844,3.84677419 11.9454565,3.19354839 11.9454565,2.05645161 C11.9454565,0.919354839 11.181711,0.266129032 10.0002922,0.266129032 L2.19576823,0.266129032 C0.811479562,0.266129032 0,1.11290323 0,2.58870968 L0,15.6774194 C0,17.1532258 0.811479562,17.9879032 2.19576823,17.9879032 Z" id="Path"></path>
            <path d="M15.348946,18 C16.7332346,18 17.5327807,17.1532258 17.5327807,15.6895161 L17.5327807,11.6129032 L20.0388205,11.6129032 L22.5925944,16.2701613 C23.3324728,17.625 23.7859467,18 24.8480302,18 C26.1249172,18 27.0318649,17.1532258 27.0318649,15.9798387 C27.0318649,15.4596774 26.9483303,15.0967742 26.5664575,14.4556452 L24.454224,10.8145161 C26.2084519,9.91935484 27.1392666,8.08064516 27.1392666,6.02419355 C27.1392666,2.41935484 24.8241632,0.266129032 20.5280949,0.266129032 L15.348946,0.266129032 C13.9646573,0.266129032 13.1531777,1.11290323 13.1531777,2.58870968 L13.1531777,15.6895161 C13.1531777,17.1532258 13.9646573,18 15.348946,18 Z M17.5327807,8.5766129 L17.5327807,3.61693548 L20.0865546,3.61693548 C21.6498461,3.61693548 22.6641955,4.62096774 22.6641955,6.10887097 C22.6641955,7.62096774 21.7095137,8.5766129 20.0984881,8.5766129 L17.5327807,8.5766129 Z" id="Shape"></path>
            <path d="M31.020097,17.7217742 L38.9081557,17.7217742 C40.0895745,17.7217742 40.85332,17.0685484 40.85332,15.9314516 C40.85332,14.7943548 40.0657074,14.141129 38.9081557,14.141129 L33.2039317,14.141129 L33.2039317,10.5846774 L38.6456182,10.5846774 C39.7315688,10.5846774 40.4117796,9.97983871 40.4117796,8.9516129 C40.4117796,7.9233871 39.7077017,7.31854839 38.6456182,7.31854839 L33.2039317,7.31854839 L33.2039317,3.84677419 L38.9081557,3.84677419 C40.0657074,3.84677419 40.85332,3.19354839 40.85332,2.05645161 C40.85332,0.919354839 40.0895745,0.266129032 38.9081557,0.266129032 L31.020097,0.266129032 C29.6358084,0.266129032 28.8243288,1.11290323 28.8243288,2.58870968 L28.8243288,15.3991935 C28.8243288,16.875 29.6358084,17.7217742 31.020097,17.7217742 Z" id="Path"></path>
            <path d="M49.770097,17.9879032 C51.1543857,17.9879032 51.9539317,17.1532258 51.9539317,15.6774194 L51.9539317,11.7217742 L57.025679,3.60483871 C57.3478841,3.09677419 57.4910864,2.60080645 57.4910864,2.06854839 C57.4910864,0.883064516 56.5722051,0 55.3311187,0 C54.4599716,0 53.8871625,0.399193548 53.3262869,1.41532258 L49.8536317,7.52419355 L49.770097,7.52419355 L46.2974418,1.41532258 C45.7126992,0.350806452 45.1995577,0 44.2448759,0 C42.9679889,0 42.0371741,0.883064516 42.0371741,2.10483871 C42.0371741,2.61290323 42.1803764,3.12096774 42.490648,3.61693548 L47.5743288,11.7217742 L47.5743288,15.6774194 C47.5743288,17.1532258 48.3738748,17.9879032 49.770097,17.9879032 Z" id="Path"></path>
            <path d="M75,15.1572581 C75,14.6733871 74.8209972,14.2620968 74.5226591,13.6330645 L69.2838425,2.50403226 C68.8303686,1.53629032 68.1740249,0.991935484 67.3267447,0.991935484 C66.4675311,0.991935484 65.8111873,1.53629032 65.3577134,2.50403226 L60.1188969,13.6330645 C59.8205588,14.2620968 59.6415559,14.6733871 59.6415559,15.1572581 C59.6415559,16.1370968 60.3933679,17.0322581 61.6702548,17.0322581 L72.9713011,17.0322581 C74.2601216,17.0322581 75,16.1370968 75,15.1572581 Z" id="Path"></path>
        </g>
    </g>
</svg>